<?xml version="1.0" encoding="UTF-8" standalone="no"?>
<!DOCTYPE svg PUBLIC "-//W3C//DTD SVG 1.1//EN" "http://www.w3.org/Graphics/SVG/1.1/DTD/svg11.dtd">
<svg width="100%" height="100%" viewBox="0 0 64 64" version="1.1" xmlns="http://www.w3.org/2000/svg" xmlns:xlink="http://www.w3.org/1999/xlink" xml:space="preserve" xmlns:serif="http://www.serif.com/" style="fill-rule:evenodd;clip-rule:evenodd;">
    <circle cx="32" cy="32" r="28" style="fill:none;stroke:black;stroke-width:4px;"/>
    <g transform="matrix(1,0,0,1,32.02,46.28)">
        <g transform="matrix(40,0,0,40,-13.18,-1.42109e-14)">
            <path d="M0.311,-0.714C0.405,-0.714 0.475,-0.7 0.52,-0.672C0.565,-0.644 0.588,-0.599 0.588,-0.537C0.588,-0.508 0.583,-0.482 0.572,-0.461C0.561,-0.439 0.546,-0.421 0.527,-0.408C0.507,-0.394 0.486,-0.384 0.461,-0.379L0.461,-0.374C0.487,-0.369 0.511,-0.361 0.534,-0.349C0.556,-0.337 0.574,-0.32 0.588,-0.297C0.601,-0.274 0.608,-0.243 0.608,-0.205C0.608,-0.162 0.598,-0.125 0.577,-0.094C0.556,-0.063 0.527,-0.04 0.488,-0.024C0.449,-0.008 0.404,-0 0.351,-0L0.089,-0L0.089,-0.714L0.311,-0.714ZM0.322,-0.421C0.373,-0.421 0.408,-0.43 0.427,-0.447C0.446,-0.464 0.455,-0.489 0.455,-0.52C0.455,-0.551 0.444,-0.574 0.421,-0.589C0.397,-0.604 0.361,-0.611 0.312,-0.611L0.219,-0.611L0.219,-0.421L0.322,-0.421ZM0.219,-0.321L0.219,-0.104L0.334,-0.104C0.386,-0.104 0.422,-0.114 0.443,-0.135C0.463,-0.156 0.473,-0.183 0.473,-0.216C0.473,-0.236 0.468,-0.254 0.46,-0.27C0.451,-0.286 0.435,-0.299 0.414,-0.308C0.393,-0.317 0.364,-0.321 0.328,-0.321L0.219,-0.321Z" style="fill-rule:nonzero;stroke:black;stroke-width:0.02px;"/>
        </g>
    </g>
</svg>
